<svg xmlns="http://www.w3.org/2000/svg" viewBox="0 0 1080 620" width="1080" height="620" role="img" aria-label="How EXTRA extends the EventXI tensor">
<title>How EXTRA extends the EventXI tensor</title>
<rect width="1080" height="620" fill="#ffffff"/>
<rect x="450" y="60" width="372" height="392" rx="6" fill="#ffffff" stroke="#b7c2bf" stroke-width="1.5"/>
<rect x="440" y="70" width="372" height="392" rx="6" fill="#ffffff" stroke="#b7c2bf" stroke-width="1.5"/>
<rect x="430" y="80" width="372" height="392" rx="6" fill="#ffffff" stroke="#b7c2bf" stroke-width="1.5"/>
<rect x="420" y="90" width="372" height="392" fill="#ffffff"/>
<rect x="420" y="90" width="62" height="34" fill="#1f6fb2" fill-opacity="0.200" stroke="#ffffff" stroke-width="2"/>
<rect x="482" y="90" width="62" height="34" fill="#1f6fb2" fill-opacity="0.208" stroke="#ffffff" stroke-width="2"/>
<rect x="544" y="90" width="62" height="34" fill="#1f6fb2" fill-opacity="0.217" stroke="#ffffff" stroke-width="2"/>
<rect x="606" y="90" width="62" height="34" fill="#1f6fb2" fill-opacity="0.225" stroke="#ffffff" stroke-width="2"/>
<rect x="668" y="90" width="62" height="34" fill="#1f6fb2" fill-opacity="0.233" stroke="#ffffff" stroke-width="2"/>
<rect x="730" y="90" width="62" height="34" fill="#1f6fb2" fill-opacity="0.242" stroke="#ffffff" stroke-width="2"/>
<text x="406" y="113.0" text-anchor="end" font-family="Inter, 'Helvetica Neue', Arial, sans-serif" font-size="16" font-weight="400" fill="#1d2b28">Action type × result (39)</text>
<rect x="420" y="124" width="62" height="34" fill="#1f6fb2" fill-opacity="0.200" stroke="#ffffff" stroke-width="2"/>
<rect x="482" y="124" width="62" height="34" fill="#1f6fb2" fill-opacity="0.208" stroke="#ffffff" stroke-width="2"/>
<rect x="544" y="124" width="62" height="34" fill="#1f6fb2" fill-opacity="0.217" stroke="#ffffff" stroke-width="2"/>
<rect x="606" y="124" width="62" height="34" fill="#1f6fb2" fill-opacity="0.225" stroke="#ffffff" stroke-width="2"/>
<rect x="668" y="124" width="62" height="34" fill="#1f6fb2" fill-opacity="0.233" stroke="#ffffff" stroke-width="2"/>
<rect x="730" y="124" width="62" height="34" fill="#1f6fb2" fill-opacity="0.242" stroke="#ffffff" stroke-width="2"/>
<text x="406" y="147.0" text-anchor="end" font-family="Inter, 'Helvetica Neue', Arial, sans-serif" font-size="16" font-weight="400" fill="#1d2b28">Passes (12)</text>
<rect x="420" y="158" width="62" height="34" fill="#1f6fb2" fill-opacity="0.200" stroke="#ffffff" stroke-width="2"/>
<rect x="482" y="158" width="62" height="34" fill="#1f6fb2" fill-opacity="0.208" stroke="#ffffff" stroke-width="2"/>
<rect x="544" y="158" width="62" height="34" fill="#1f6fb2" fill-opacity="0.217" stroke="#ffffff" stroke-width="2"/>
<rect x="606" y="158" width="62" height="34" fill="#1f6fb2" fill-opacity="0.225" stroke="#ffffff" stroke-width="2"/>
<rect x="668" y="158" width="62" height="34" fill="#1f6fb2" fill-opacity="0.233" stroke="#ffffff" stroke-width="2"/>
<rect x="730" y="158" width="62" height="34" fill="#1f6fb2" fill-opacity="0.242" stroke="#ffffff" stroke-width="2"/>
<text x="406" y="181.0" text-anchor="end" font-family="Inter, 'Helvetica Neue', Arial, sans-serif" font-size="16" font-weight="400" fill="#1d2b28">Receptions (1)</text>
<rect x="420" y="192" width="62" height="34" fill="#1f6fb2" fill-opacity="0.200" stroke="#ffffff" stroke-width="2"/>
<rect x="482" y="192" width="62" height="34" fill="#1f6fb2" fill-opacity="0.208" stroke="#ffffff" stroke-width="2"/>
<rect x="544" y="192" width="62" height="34" fill="#1f6fb2" fill-opacity="0.217" stroke="#ffffff" stroke-width="2"/>
<rect x="606" y="192" width="62" height="34" fill="#1f6fb2" fill-opacity="0.225" stroke="#ffffff" stroke-width="2"/>
<rect x="668" y="192" width="62" height="34" fill="#1f6fb2" fill-opacity="0.233" stroke="#ffffff" stroke-width="2"/>
<rect x="730" y="192" width="62" height="34" fill="#1f6fb2" fill-opacity="0.242" stroke="#ffffff" stroke-width="2"/>
<text x="406" y="215.0" text-anchor="end" font-family="Inter, 'Helvetica Neue', Arial, sans-serif" font-size="16" font-weight="400" fill="#1d2b28">Shots (4)</text>
<rect x="420" y="226" width="62" height="34" fill="#1f6fb2" fill-opacity="0.200" stroke="#ffffff" stroke-width="2"/>
<rect x="482" y="226" width="62" height="34" fill="#1f6fb2" fill-opacity="0.208" stroke="#ffffff" stroke-width="2"/>
<rect x="544" y="226" width="62" height="34" fill="#1f6fb2" fill-opacity="0.217" stroke="#ffffff" stroke-width="2"/>
<rect x="606" y="226" width="62" height="34" fill="#1f6fb2" fill-opacity="0.225" stroke="#ffffff" stroke-width="2"/>
<rect x="668" y="226" width="62" height="34" fill="#1f6fb2" fill-opacity="0.233" stroke="#ffffff" stroke-width="2"/>
<rect x="730" y="226" width="62" height="34" fill="#1f6fb2" fill-opacity="0.242" stroke="#ffffff" stroke-width="2"/>
<text x="406" y="249.0" text-anchor="end" font-family="Inter, 'Helvetica Neue', Arial, sans-serif" font-size="16" font-weight="400" fill="#1d2b28">Defensive actions (6)</text>
<rect x="420" y="278" width="62" height="34" fill="#c2453c" fill-opacity="0.260" stroke="#ffffff" stroke-width="2"/>
<rect x="482" y="278" width="62" height="34" fill="#c2453c" fill-opacity="0.268" stroke="#ffffff" stroke-width="2"/>
<rect x="544" y="278" width="62" height="34" fill="#c2453c" fill-opacity="0.277" stroke="#ffffff" stroke-width="2"/>
<rect x="606" y="278" width="62" height="34" fill="#c2453c" fill-opacity="0.285" stroke="#ffffff" stroke-width="2"/>
<rect x="668" y="278" width="62" height="34" fill="#c2453c" fill-opacity="0.293" stroke="#ffffff" stroke-width="2"/>
<rect x="730" y="278" width="62" height="34" fill="#c2453c" fill-opacity="0.302" stroke="#ffffff" stroke-width="2"/>
<text x="406" y="301.0" text-anchor="end" font-family="Inter, 'Helvetica Neue', Arial, sans-serif" font-size="16" font-weight="700" fill="#c2453c">Build-up</text>
<rect x="420" y="312" width="62" height="34" fill="#c2453c" fill-opacity="0.260" stroke="#ffffff" stroke-width="2"/>
<rect x="482" y="312" width="62" height="34" fill="#c2453c" fill-opacity="0.268" stroke="#ffffff" stroke-width="2"/>
<rect x="544" y="312" width="62" height="34" fill="#c2453c" fill-opacity="0.277" stroke="#ffffff" stroke-width="2"/>
<rect x="606" y="312" width="62" height="34" fill="#c2453c" fill-opacity="0.285" stroke="#ffffff" stroke-width="2"/>
<rect x="668" y="312" width="62" height="34" fill="#c2453c" fill-opacity="0.293" stroke="#ffffff" stroke-width="2"/>
<rect x="730" y="312" width="62" height="34" fill="#c2453c" fill-opacity="0.302" stroke="#ffffff" stroke-width="2"/>
<text x="406" y="335.0" text-anchor="end" font-family="Inter, 'Helvetica Neue', Arial, sans-serif" font-size="16" font-weight="700" fill="#c2453c">Settled attack</text>
<rect x="420" y="346" width="62" height="34" fill="#c2453c" fill-opacity="0.260" stroke="#ffffff" stroke-width="2"/>
<rect x="482" y="346" width="62" height="34" fill="#c2453c" fill-opacity="0.268" stroke="#ffffff" stroke-width="2"/>
<rect x="544" y="346" width="62" height="34" fill="#c2453c" fill-opacity="0.277" stroke="#ffffff" stroke-width="2"/>
<rect x="606" y="346" width="62" height="34" fill="#c2453c" fill-opacity="0.285" stroke="#ffffff" stroke-width="2"/>
<rect x="668" y="346" width="62" height="34" fill="#c2453c" fill-opacity="0.293" stroke="#ffffff" stroke-width="2"/>
<rect x="730" y="346" width="62" height="34" fill="#c2453c" fill-opacity="0.302" stroke="#ffffff" stroke-width="2"/>
<text x="406" y="369.0" text-anchor="end" font-family="Inter, 'Helvetica Neue', Arial, sans-serif" font-size="16" font-weight="700" fill="#c2453c">Attacking transition</text>
<rect x="420" y="380" width="62" height="34" fill="#c2453c" fill-opacity="0.260" stroke="#ffffff" stroke-width="2"/>
<rect x="482" y="380" width="62" height="34" fill="#c2453c" fill-opacity="0.268" stroke="#ffffff" stroke-width="2"/>
<rect x="544" y="380" width="62" height="34" fill="#c2453c" fill-opacity="0.277" stroke="#ffffff" stroke-width="2"/>
<rect x="606" y="380" width="62" height="34" fill="#c2453c" fill-opacity="0.285" stroke="#ffffff" stroke-width="2"/>
<rect x="668" y="380" width="62" height="34" fill="#c2453c" fill-opacity="0.293" stroke="#ffffff" stroke-width="2"/>
<rect x="730" y="380" width="62" height="34" fill="#c2453c" fill-opacity="0.302" stroke="#ffffff" stroke-width="2"/>
<text x="406" y="403.0" text-anchor="end" font-family="Inter, 'Helvetica Neue', Arial, sans-serif" font-size="16" font-weight="700" fill="#c2453c">Pressing</text>
<rect x="420" y="414" width="62" height="34" fill="#c2453c" fill-opacity="0.260" stroke="#ffffff" stroke-width="2"/>
<rect x="482" y="414" width="62" height="34" fill="#c2453c" fill-opacity="0.268" stroke="#ffffff" stroke-width="2"/>
<rect x="544" y="414" width="62" height="34" fill="#c2453c" fill-opacity="0.277" stroke="#ffffff" stroke-width="2"/>
<rect x="606" y="414" width="62" height="34" fill="#c2453c" fill-opacity="0.285" stroke="#ffffff" stroke-width="2"/>
<rect x="668" y="414" width="62" height="34" fill="#c2453c" fill-opacity="0.293" stroke="#ffffff" stroke-width="2"/>
<rect x="730" y="414" width="62" height="34" fill="#c2453c" fill-opacity="0.302" stroke="#ffffff" stroke-width="2"/>
<text x="406" y="437.0" text-anchor="end" font-family="Inter, 'Helvetica Neue', Arial, sans-serif" font-size="16" font-weight="700" fill="#c2453c">Settled defence</text>
<rect x="420" y="448" width="62" height="34" fill="#c2453c" fill-opacity="0.260" stroke="#ffffff" stroke-width="2"/>
<rect x="482" y="448" width="62" height="34" fill="#c2453c" fill-opacity="0.268" stroke="#ffffff" stroke-width="2"/>
<rect x="544" y="448" width="62" height="34" fill="#c2453c" fill-opacity="0.277" stroke="#ffffff" stroke-width="2"/>
<rect x="606" y="448" width="62" height="34" fill="#c2453c" fill-opacity="0.285" stroke="#ffffff" stroke-width="2"/>
<rect x="668" y="448" width="62" height="34" fill="#c2453c" fill-opacity="0.293" stroke="#ffffff" stroke-width="2"/>
<rect x="730" y="448" width="62" height="34" fill="#c2453c" fill-opacity="0.302" stroke="#ffffff" stroke-width="2"/>
<text x="406" y="471.0" text-anchor="end" font-family="Inter, 'Helvetica Neue', Arial, sans-serif" font-size="16" font-weight="700" fill="#c2453c">Defensive transition</text>
<text x="606.0" y="28" text-anchor="middle" font-family="Inter, 'Helvetica Neue', Arial, sans-serif" font-size="17" font-weight="700" fill="#1d2b28">6 pitch-depth bands</text>
<text x="420" y="52" text-anchor="start" font-family="Inter, 'Helvetica Neue', Arial, sans-serif" font-size="14" font-weight="400" fill="#4a5a56">own goal</text>
<text x="792" y="52" text-anchor="end" font-family="Inter, 'Helvetica Neue', Arial, sans-serif" font-size="14" font-weight="400" fill="#4a5a56">opponent goal</text>
<path d="M188,90 v170" stroke="#1f6fb2" stroke-width="4"/>
<text x="176" y="171.0" text-anchor="end" font-family="Inter, 'Helvetica Neue', Arial, sans-serif" font-size="17" font-weight="800" fill="#1f6fb2">EventXI</text>
<text x="176" y="193.0" text-anchor="end" font-family="Inter, 'Helvetica Neue', Arial, sans-serif" font-size="14" font-weight="400" fill="#4a5a56">62 event rows</text>
<path d="M188,278 v204" stroke="#c2453c" stroke-width="4"/>
<text x="176" y="376.0" text-anchor="end" font-family="Inter, 'Helvetica Neue', Arial, sans-serif" font-size="17" font-weight="800" fill="#c2453c">EXTRA</text>
<text x="176" y="398.0" text-anchor="end" font-family="Inter, 'Helvetica Neue', Arial, sans-serif" font-size="14" font-weight="400" fill="#4a5a56">6 phase rows</text>
<text x="862" y="104" text-anchor="start" font-family="Inter, 'Helvetica Neue', Arial, sans-serif" font-size="17" font-weight="700" fill="#1d2b28">4 faces per cell</text>
<text x="862" y="136" text-anchor="start" font-family="Inter, 'Helvetica Neue', Arial, sans-serif" font-size="15" font-weight="700" fill="#1f6fb2">Event rows</text>
<text x="876" y="162" text-anchor="start" font-family="Inter, 'Helvetica Neue', Arial, sans-serif" font-size="15" font-weight="400" fill="#4a5a56">VAEP value</text>
<text x="876" y="186" text-anchor="start" font-family="Inter, 'Helvetica Neue', Arial, sans-serif" font-size="15" font-weight="400" fill="#4a5a56">offensive value</text>
<text x="876" y="210" text-anchor="start" font-family="Inter, 'Helvetica Neue', Arial, sans-serif" font-size="15" font-weight="400" fill="#4a5a56">defensive value</text>
<text x="876" y="234" text-anchor="start" font-family="Inter, 'Helvetica Neue', Arial, sans-serif" font-size="15" font-weight="400" fill="#4a5a56">count</text>
<text x="862" y="280" text-anchor="start" font-family="Inter, 'Helvetica Neue', Arial, sans-serif" font-size="15" font-weight="700" fill="#c2453c">Phase rows</text>
<text x="876" y="306" text-anchor="start" font-family="Inter, 'Helvetica Neue', Arial, sans-serif" font-size="15" font-weight="400" fill="#4a5a56">mean speed</text>
<text x="876" y="330" text-anchor="start" font-family="Inter, 'Helvetica Neue', Arial, sans-serif" font-size="15" font-weight="400" fill="#4a5a56">high-intensity share</text>
<text x="876" y="354" text-anchor="start" font-family="Inter, 'Helvetica Neue', Arial, sans-serif" font-size="15" font-weight="400" fill="#4a5a56">pressing engagement</text>
<text x="876" y="378" text-anchor="start" font-family="Inter, 'Helvetica Neue', Arial, sans-serif" font-size="15" font-weight="400" fill="#4a5a56">minutes (log)</text>
<rect x="420" y="522" width="372" height="40" rx="8" fill="#ffffff" stroke="#c2453c" stroke-width="2"/>
<text x="606.0" y="548" text-anchor="middle" font-family="Inter, 'Helvetica Neue', Arial, sans-serif" font-size="16" font-weight="700" fill="#c2453c">+ missing-tracking indicator (scalar)</text>
<text x="606.0" y="594" text-anchor="middle" font-family="Inter, 'Helvetica Neue', Arial, sans-serif" font-size="14" font-weight="400" fill="#4a5a56">one tensor per player per past match · EventXI encoder, history pooling and set block unchanged</text>
</svg>